<svg width="18" height="18" viewBox="0 0 18 18" fill="none" xmlns="http://www.w3.org/2000/svg">
<path d="M17.9507 5.29229C17.9086 4.33588 17.7539 3.67836 17.5324 3.10861C17.3038 2.50383 16.9522 1.96237 16.4915 1.51226C16.0414 1.05514 15.4963 0.699935 14.8986 0.474946C14.3255 0.253391 13.6714 0.0987283 12.715 0.0565601C11.7515 0.0108205 11.4456 0.000244141 9.00174 0.000244141C6.55791 0.000244141 6.25202 0.0108205 5.29204 0.0529888C4.33563 0.0951571 3.67811 0.249957 3.1085 0.471375C2.50358 0.699935 1.96213 1.05157 1.51201 1.51226C1.05489 1.96237 0.699827 2.5074 0.474701 3.10517C0.253147 3.67836 0.098484 4.33231 0.0563158 5.28872C0.0105764 6.25227 0 6.55817 0 9.002C0 11.4458 0.0105764 11.7517 0.0527446 12.7117C0.0949128 13.6681 0.249713 14.3256 0.471267 14.8954C0.699827 15.5002 1.05489 16.0416 1.51201 16.4917C1.96213 16.9489 2.50715 17.3041 3.10493 17.5291C3.67811 17.7506 4.33206 17.9053 5.28861 17.9474C6.24845 17.9897 6.55448 18.0002 8.99831 18.0002C11.4421 18.0002 11.748 17.9897 12.708 17.9474C13.6644 17.9053 14.3219 17.7506 14.8916 17.5291C16.1012 17.0614 17.0577 16.105 17.5254 14.8954C17.7468 14.3222 17.9016 13.6681 17.9437 12.7117C17.9859 11.7517 17.9965 11.4458 17.9965 9.002C17.9965 6.55817 17.9929 6.25227 17.9507 5.29229ZM16.3298 12.6414C16.2911 13.5205 16.1434 13.9952 16.0203 14.3116C15.7179 15.0958 15.0955 15.7182 14.3114 16.0206C13.9949 16.1437 13.5168 16.2913 12.6411 16.3299C11.6917 16.3722 11.407 16.3827 9.00531 16.3827C6.60365 16.3827 6.31534 16.3722 5.36937 16.3299C4.4903 16.2913 4.01559 16.1437 3.69913 16.0206C3.3089 15.8764 2.9537 15.6478 2.66539 15.3489C2.3665 15.0571 2.13794 14.7054 1.99372 14.3152C1.87065 13.9987 1.72299 13.5205 1.68439 12.645C1.64209 11.6956 1.63165 11.4107 1.63165 9.00901C1.63165 6.60734 1.64209 6.31903 1.68439 5.3732C1.72299 4.49412 1.87065 4.01942 1.99372 3.70295C2.13794 3.31258 2.3665 2.95752 2.66896 2.66907C2.9607 2.37018 3.31233 2.14162 3.7027 1.99754C4.01917 1.87447 4.49744 1.72681 5.37294 1.68807C6.32235 1.64591 6.60722 1.63533 9.00875 1.63533C11.414 1.63533 11.6987 1.64591 12.6447 1.68807C13.5238 1.72681 13.9985 1.87447 14.3149 1.99754C14.7052 2.14162 15.0604 2.37018 15.3487 2.66907C15.6476 2.96095 15.8761 3.31258 16.0203 3.70295C16.1434 4.01942 16.2911 4.49755 16.3298 5.3732C16.372 6.3226 16.3826 6.60734 16.3826 9.00901C16.3826 11.4107 16.372 11.692 16.3298 12.6414Z" fill="white"/>
<path d="M9.00188 4.37769C6.44912 4.37769 4.37793 6.44874 4.37793 9.00164C4.37793 11.5545 6.44912 13.6256 9.00188 13.6256C11.5548 13.6256 13.6258 11.5545 13.6258 9.00164C13.6258 6.44874 11.5548 4.37769 9.00188 4.37769ZM9.00188 12.0011C7.34578 12.0011 6.00244 10.6579 6.00244 9.00164C6.00244 7.3454 7.34578 6.00219 9.00188 6.00219C10.6581 6.00219 12.0013 7.3454 12.0013 9.00164C12.0013 10.6579 10.6581 12.0011 9.00188 12.0011Z" fill="white"/>
<path d="M14.8876 4.19545C14.8876 4.79158 14.4043 5.27493 13.808 5.27493C13.2119 5.27493 12.7285 4.79158 12.7285 4.19545C12.7285 3.59919 13.2119 3.11597 13.808 3.11597C14.4043 3.11597 14.8876 3.59919 14.8876 4.19545Z" fill="white"/>
</svg>
