<svg width="18" height="18" viewBox="0 0 18 18" fill="none" xmlns="http://www.w3.org/2000/svg">
<path d="M17.9921 18.0004V17.9997H17.9966V11.3982C17.9966 8.16866 17.3013 5.68091 13.5258 5.68091C11.7108 5.68091 10.4928 6.67691 9.99554 7.62116H9.94304V5.98241H6.36328V17.9997H10.0908V12.0492C10.0908 10.4824 10.3878 8.96741 12.328 8.96741C14.2398 8.96741 14.2683 10.7554 14.2683 12.1497V18.0004H17.9921Z" fill="white"/>
<path d="M0.292969 5.98315H4.02497V18.0004H0.292969V5.98315Z" fill="white"/>
<path d="M2.15759 0.000244141C0.964344 0.000244141 -0.00390625 0.968494 -0.00390625 2.16174C-0.00390625 3.35499 0.964344 4.34349 2.15759 4.34349C3.35084 4.34349 4.31909 3.35499 4.31909 2.16174C4.31834 0.968494 3.35009 0.000244141 2.15759 0.000244141V0.000244141Z" fill="white"/>
</svg>
