<svg width="18" height="18" viewBox="0 0 18 18" fill="none" xmlns="http://www.w3.org/2000/svg">
<g clip-path="url(#clip0_4558_23871)">
<path d="M17.9961 3.73162C17.3267 4.02524 16.6135 4.21987 15.8698 4.31437C16.6348 3.85762 17.2187 3.13987 17.4932 2.27474C16.78 2.69999 15.9925 3.00037 15.1532 3.16799C14.476 2.44687 13.5107 2.00024 12.4577 2.00024C10.4147 2.00024 8.76997 3.65849 8.76997 5.69137C8.76997 5.98387 8.79472 6.26512 8.85547 6.53287C5.78759 6.38324 3.07297 4.91287 1.24934 2.67299C0.930969 3.22537 0.744219 3.85762 0.744219 4.53824C0.744219 5.81624 1.40234 6.94912 2.38334 7.60499C1.79047 7.59374 1.20884 7.42162 0.716094 7.15049C0.716094 7.16174 0.716094 7.17637 0.716094 7.19099C0.716094 8.98424 1.99522 10.4737 3.67259 10.8169C3.37222 10.899 3.04484 10.9384 2.70509 10.9384C2.46884 10.9384 2.23034 10.9249 2.00647 10.8754C2.48459 12.3367 3.84134 13.4111 5.45459 13.446C4.19909 14.4281 2.60497 15.0199 0.879219 15.0199C0.576594 15.0199 0.286344 15.0064 -0.00390625 14.9692C1.63072 16.0234 3.56797 16.6252 5.65709 16.6252C12.4476 16.6252 16.1601 11.0002 16.1601 6.12449C16.1601 5.96137 16.1545 5.80387 16.1466 5.64749C16.879 5.12774 17.4943 4.47862 17.9961 3.73162Z" fill="white"/>
</g>
<defs>
<clipPath id="clip0_4558_23871">
<rect width="18" height="18" fill="white" transform="translate(-0.00390625 0.000244141)"/>
</clipPath>
</defs>
</svg>
