<svg width="18" height="18" viewBox="0 0 18 18" fill="none" xmlns="http://www.w3.org/2000/svg">
<path fill-rule="evenodd" clip-rule="evenodd" d="M16.0388 3.38573C16.8098 3.59337 17.4177 4.20118 17.6252 4.97228C18.0109 6.38072 17.996 9.31653 17.996 9.31653C17.996 9.31653 17.996 12.2374 17.6254 13.646C17.4177 14.4169 16.8099 15.0249 16.0388 15.2324C14.6302 15.6032 8.99606 15.6032 8.99606 15.6032C8.99606 15.6032 3.37657 15.6032 1.9533 15.2177C1.1822 15.01 0.574384 14.4021 0.366743 13.6311C-0.00390625 12.2374 -0.00390625 9.3017 -0.00390625 9.3017C-0.00390625 9.3017 -0.00390625 6.38072 0.366743 4.97228C0.574247 4.20132 1.19703 3.57853 1.95316 3.37103C3.36174 3.00024 8.99592 3.00024 8.99592 3.00024C8.99592 3.00024 14.6302 3.00024 16.0388 3.38573ZM11.8874 9.30179L7.20215 12.0003V6.60327L11.8874 9.30179Z" fill="white"/>
</svg>
