<svg width="177" height="46" viewBox="0 0 177 46" fill="none" xmlns="http://www.w3.org/2000/svg">
<path d="M2.4375 17.2502L24 5.75024L45.5625 17.2502L24 28.7502L2.4375 17.2502Z" stroke="#FF6636" stroke-width="3.45" stroke-linecap="round" stroke-linejoin="round"/>
<path d="M34.7812 43.1252V23.0002L24 17.2502" stroke="#FF6636" stroke-width="3.45" stroke-linecap="round" stroke-linejoin="round"/>
<path d="M40.5313 19.9335V29.7302C40.5319 30.0403 40.4316 30.3422 40.2456 30.5903C39.0351 32.2011 33.9283 38.0939 24 38.0939C14.0717 38.0939 8.96486 32.2011 7.75437 30.5903C7.5684 30.3422 7.46816 30.0403 7.46875 29.7302V19.9335" stroke="#FF6636" stroke-width="3.45" stroke-linecap="round" stroke-linejoin="round"/>
<path d="M58.84 36.0002V9.23661H76.2468V13.3008H63.6883V20.5667H75.3451V24.6309H63.6883V31.936H76.3513V36.0002H58.84ZM92.0465 22.9059V26.8002H79.9976V22.9059H92.0465ZM105.941 15.9275V19.5866H94.4023V15.9275H105.941ZM97.2511 11.1184H101.982V29.9627C101.982 30.5987 102.078 31.0866 102.269 31.4264C102.47 31.7574 102.731 31.984 103.053 32.1059C103.376 32.2279 103.733 32.2889 104.125 32.2889C104.421 32.2889 104.691 32.2671 104.935 32.2235C105.188 32.18 105.38 32.1408 105.51 32.1059L106.307 35.8042C106.055 35.8913 105.693 35.9872 105.223 36.0917C104.761 36.1963 104.195 36.2573 103.524 36.2747C102.339 36.3095 101.272 36.1309 100.322 35.7389C99.3725 35.3381 98.6189 34.7196 98.0614 33.8832C97.5125 33.0468 97.2424 32.0014 97.2511 30.7468V11.1184ZM121.588 27.5582V15.9275H126.318V36.0002H121.731V32.4326H121.522C121.069 33.5565 120.324 34.4756 119.288 35.19C118.26 35.9044 116.992 36.2616 115.485 36.2616C114.169 36.2616 113.006 35.9698 111.996 35.386C110.994 34.7936 110.21 33.9355 109.643 32.8116C109.077 31.679 108.794 30.3112 108.794 28.7082V15.9275H113.525V27.9764C113.525 29.2484 113.873 30.259 114.57 31.0082C115.267 31.7574 116.182 32.1321 117.314 32.1321C118.011 32.1321 118.686 31.9622 119.34 31.6224C119.993 31.2826 120.529 30.7773 120.947 30.1065C121.374 29.4269 121.588 28.5775 121.588 27.5582ZM140.102 15.9275V19.5866H128.563V15.9275H140.102ZM131.412 11.1184H136.143V29.9627C136.143 30.5987 136.238 31.0866 136.43 31.4264C136.63 31.7574 136.892 31.984 137.214 32.1059C137.537 32.2279 137.894 32.2889 138.286 32.2889C138.582 32.2889 138.852 32.2671 139.096 32.2235C139.349 32.18 139.54 32.1408 139.671 32.1059L140.468 35.8042C140.215 35.8913 139.854 35.9872 139.383 36.0917C138.922 36.1963 138.355 36.2573 137.685 36.2747C136.5 36.3095 135.433 36.1309 134.483 35.7389C133.533 35.3381 132.78 34.7196 132.222 33.8832C131.673 33.0468 131.403 32.0014 131.412 30.7468V11.1184ZM151.495 36.3923C149.534 36.3923 147.836 35.961 146.398 35.0985C144.961 34.236 143.845 33.0294 143.053 31.4787C142.269 29.9279 141.877 28.1158 141.877 26.0423C141.877 23.9688 142.269 22.1523 143.053 20.5929C143.845 19.0334 144.961 17.8224 146.398 16.9599C147.836 16.0974 149.534 15.6662 151.495 15.6662C153.455 15.6662 155.154 16.0974 156.591 16.9599C158.029 17.8224 159.14 19.0334 159.924 20.5929C160.716 22.1523 161.113 23.9688 161.113 26.0423C161.113 28.1158 160.716 29.9279 159.924 31.4787C159.14 33.0294 158.029 34.236 156.591 35.0985C155.154 35.961 153.455 36.3923 151.495 36.3923ZM151.521 32.6025C152.584 32.6025 153.472 32.3107 154.187 31.7269C154.901 31.1345 155.433 30.3417 155.781 29.3485C156.138 28.3554 156.317 27.2489 156.317 26.0292C156.317 24.8008 156.138 23.69 155.781 22.6968C155.433 21.6949 154.901 20.8978 154.187 20.3054C153.472 19.7129 152.584 19.4167 151.521 19.4167C150.432 19.4167 149.526 19.7129 148.803 20.3054C148.088 20.8978 147.552 21.6949 147.195 22.6968C146.847 23.69 146.673 24.8008 146.673 26.0292C146.673 27.2489 146.847 28.3554 147.195 29.3485C147.552 30.3417 148.088 31.1345 148.803 31.7269C149.526 32.3107 150.432 32.6025 151.521 32.6025ZM164.024 36.0002V15.9275H168.611V19.273H168.82C169.186 18.1143 169.813 17.2213 170.702 16.594C171.599 15.958 172.623 15.64 173.773 15.64C174.034 15.64 174.326 15.6531 174.648 15.6792C174.98 15.6966 175.254 15.7271 175.472 15.7707V20.1224C175.271 20.0527 174.953 19.9917 174.518 19.9394C174.091 19.8785 173.677 19.848 173.276 19.848C172.414 19.848 171.638 20.0353 170.95 20.4099C170.271 20.7758 169.735 21.2855 169.343 21.9389C168.951 22.5923 168.755 23.3459 168.755 24.1997V36.0002H164.024Z" fill="white"/>
</svg>
