<svg width="16" height="16" viewBox="0 0 16 16" fill="none" xmlns="http://www.w3.org/2000/svg">
<path d="M13.5923 7.57363L4.59374 2.07434C4.51795 2.02802 4.43118 2.00273 4.34237 2.00106C4.25356 1.9994 4.16591 2.02143 4.08843 2.06488C4.01096 2.10833 3.94646 2.17163 3.90156 2.24828C3.85667 2.32493 3.83301 2.41215 3.83301 2.50098V13.4996C3.83301 13.5884 3.85667 13.6756 3.90156 13.7523C3.94646 13.8289 4.01096 13.8922 4.08843 13.9357C4.16591 13.9791 4.25356 14.0011 4.34237 13.9995C4.43118 13.9978 4.51795 13.9725 4.59374 13.9262L13.5923 8.4269C13.6654 8.38224 13.7257 8.31955 13.7676 8.24484C13.8095 8.17014 13.8315 8.08592 13.8315 8.00027C13.8315 7.91461 13.8095 7.8304 13.7676 7.75569C13.7257 7.68098 13.6654 7.61829 13.5923 7.57363Z" fill="#A1A5B3"/>
</svg>
